<?xml version="1.0" encoding="utf-8"?>
<!-- Generator: Adobe Illustrator 24.0.1, SVG Export Plug-In . SVG Version: 6.00 Build 0)  -->
<svg version="1.1" id="Icon_x5F_contour" xmlns="http://www.w3.org/2000/svg" xmlns:xlink="http://www.w3.org/1999/xlink" x="0px"
	 y="0px" viewBox="0 0 192 192" style="enable-background:new 0 0 192 192;" xml:space="preserve">
<path d="M148,140h12v8h-12v12h-8v-12h-12v-8h12v-12h8V140z M176,144c0,17.64502-14.35498,32-32,32s-32-14.35498-32-32
	s14.35498-32,32-32S176,126.35498,176,144z M168,144c0-13.23389-10.76611-24-24-24s-24,10.76611-24,24s10.76611,24,24,24
	S168,157.23389,168,144z M120.02777,112H68v30.34326L37.65674,112H24V48h112v56.80493c2.58575-0.52698,5.26093-0.80493,8-0.80493V40
	H16v80h18.34326L76,161.65674V120h36.02185C114.30029,116.97174,116.99744,114.27588,120.02777,112z"/>
<g>
</g>
<g>
</g>
<g>
</g>
<g>
</g>
<g>
</g>
<g>
</g>
<g>
</g>
<g>
</g>
<g>
</g>
<g>
</g>
<g>
</g>
<g>
</g>
<g>
</g>
<g>
</g>
<g>
</g>
</svg>
