<?xml version="1.0" encoding="utf-8"?>
<!-- Generator: Adobe Illustrator 28.0.0, SVG Export Plug-In . SVG Version: 6.00 Build 0)  -->
<svg version="1.1" id="Icon_x5F_contour" xmlns="http://www.w3.org/2000/svg" xmlns:xlink="http://www.w3.org/1999/xlink" x="0px"
	 y="0px" viewBox="0 0 192 192" style="enable-background:new 0 0 192 192;" xml:space="preserve">
<path style="fill:#070707;" d="M158.5,136.29l1.58,7.84l-19.61,3.95l-3.95-19.61l7.84-1.58l1.26,6.28
	C153.65,122.5,158,109.59,158,96c0-34.19-27.81-62-62-62c-9.14,0-17.95,1.95-26.2,5.81l-3.39-7.25C75.73,28.21,85.68,26,96,26
	c38.6,0,70,31.4,70,70c0,15.15-4.78,29.56-13.63,41.52L158.5,136.29z M96,158c-34.19,0-62-27.81-62-62
	c0-13.59,4.35-26.5,12.37-37.17l1.26,6.28l7.84-1.58l-3.95-19.61l-19.61,3.95l1.58,7.84l6.13-1.23C30.78,66.44,26,80.85,26,96
	c0,38.6,31.4,70,70,70c10.32,0,20.27-2.21,29.59-6.56l-3.39-7.25C113.95,156.05,105.14,158,96,158z"/>
<g>
</g>
<g>
</g>
<g>
</g>
<g>
</g>
<g>
</g>
<g>
</g>
<g>
</g>
<g>
</g>
<g>
</g>
<g>
</g>
<g>
</g>
<g>
</g>
<g>
</g>
<g>
</g>
<g>
</g>
</svg>
