<?xml version="1.0" encoding="utf-8"?>
<!-- Generator: Adobe Illustrator 25.3.1, SVG Export Plug-In . SVG Version: 6.00 Build 0)  -->
<svg version="1.1" id="Icon_x5F_contour" xmlns="http://www.w3.org/2000/svg" xmlns:xlink="http://www.w3.org/1999/xlink" x="0px"
	 y="0px" viewBox="0 0 192 192" style="enable-background:new 0 0 192 192;" xml:space="preserve">
<path d="M48,96c0,8.83656-7.16344,16-16,16s-16-7.16344-16-16s7.16344-16,16-16S48,87.16344,48,96z M96.00084,80
	c-8.83656,0-16,7.16344-16,16s7.16344,16,16,16s16-7.16344,16-16S104.83739,80,96.00084,80z M160,80c-8.83656,0-16,7.16344-16,16
	s7.16344,16,16,16s16-7.16344,16-16S168.83656,80,160,80z"/>
<g>
</g>
<g>
</g>
<g>
</g>
<g>
</g>
<g>
</g>
<g>
</g>
<g>
</g>
<g>
</g>
<g>
</g>
<g>
</g>
<g>
</g>
<g>
</g>
<g>
</g>
<g>
</g>
<g>
</g>
</svg>
