<?xml version="1.0" encoding="utf-8"?>
<!-- Generator: Adobe Illustrator 24.0.1, SVG Export Plug-In . SVG Version: 6.00 Build 0)  -->
<svg version="1.1" id="Icon_x5F_contour" xmlns="http://www.w3.org/2000/svg" xmlns:xlink="http://www.w3.org/1999/xlink" x="0px"
	 y="0px" viewBox="0 0 192 192" style="enable-background:new 0 0 192 192;" xml:space="preserve">
<path d="M90.34856,105.93153c0-8.12079,2.30431-12.07133,10.53495-17.88779c6.36471-4.38943,8.44983-7.68139,8.44983-13.05846
	c0-6.8041-5.04803-11.41323-12.62007-11.41323c-8.34048,0-13.38801,4.38993-15.03423,13.27866l-8.44983-1.09748
	c1.09698-6.47456,2.96291-10.31525,7.0233-13.93675C84.53209,57.97527,90.34856,56,97.04231,56
	c12.94911,0,21.72849,7.57204,21.72849,18.76558c0,5.15788-1.64622,9.43746-4.82883,12.94911
	c-1.97527,2.08512-3.51115,3.29246-8.44983,6.58441c-5.81597,3.84069-7.13265,6.25536-7.13265,12.83926v4.71898h-8.01093V105.93153z
	 M101.21255,128.9767c0,3.8407-3.1826,7.0233-7.02329,7.0233c-3.95055,0-7.0233-3.07275-7.0233-7.0233
	c0-3.95054,3.07275-7.0233,7.0233-7.0233C98.02995,121.9534,101.21255,125.13601,101.21255,128.9767z M96,176
	c-44.1123,0-80-35.8877-80-80s35.8877-80,80-80s80,35.8877,80,80S140.1123,176,96,176z M96,24c-39.70117,0-72,32.29883-72,72
	s32.29883,72,72,72s72-32.29883,72-72S135.70117,24,96,24z"/>
<g>
</g>
<g>
</g>
<g>
</g>
<g>
</g>
<g>
</g>
<g>
</g>
<g>
</g>
<g>
</g>
<g>
</g>
<g>
</g>
<g>
</g>
<g>
</g>
<g>
</g>
<g>
</g>
<g>
</g>
</svg>
