<?xml version="1.0" encoding="UTF-8"?>
<svg xmlns="http://www.w3.org/2000/svg" viewBox="0 0 192 192"><path d="M132.77 132.77l-5.658-5.658C135.423 118.802 140 107.752 140 96s-4.577-22.802-12.888-31.112l5.658-5.658C142.59 69.052 148 82.11 148 96s-5.41 26.948-15.23 36.77zm19.799-93.339l-5.657 5.657c28.072 28.073 28.072 73.75 0 101.824l5.657 5.657c31.191-31.193 31.191-81.945 0-113.138zM92 26.343L46.343 72H16v48h30.343L92 165.657V26.343zM24 80h25.657L84 45.657v100.686L49.657 112H24V80z" style="fill: #2e3033;"/></svg>
